<?xml version="1.0" encoding="UTF-8" standalone="no"?>
<!-- Created with Inkscape (http://www.inkscape.org/) -->

<svg
   xmlns:dc="http://purl.org/dc/elements/1.1/"
   xmlns:cc="http://creativecommons.org/ns#"
   xmlns:rdf="http://www.w3.org/1999/02/22-rdf-syntax-ns#"
   xmlns:svg="http://www.w3.org/2000/svg"
   xmlns="http://www.w3.org/2000/svg"
   xmlns:sodipodi="http://sodipodi.sourceforge.net/DTD/sodipodi-0.dtd"
   xmlns:inkscape="http://www.inkscape.org/namespaces/inkscape"
   width="512"
   height="512"
   viewBox="0 0 511.99999 511.99999"
   id="svg2"
   version="1.1"
   inkscape:version="0.91 r13725"
   sodipodi:docname="transitions.svg">
  <defs
     id="defs4" />
  <sodipodi:namedview
     id="base"
     pagecolor="#ffffff"
     bordercolor="#666666"
     borderopacity="1.0"
     inkscape:pageopacity="0.0"
     inkscape:pageshadow="2"
     inkscape:zoom="1.4"
     inkscape:cx="240.96022"
     inkscape:cy="231.08941"
     inkscape:document-units="px"
     inkscape:current-layer="layer1"
     showgrid="false"
     units="px"
     inkscape:window-width="1920"
     inkscape:window-height="997"
     inkscape:window-x="0"
     inkscape:window-y="50"
     inkscape:window-maximized="1" />
  <metadata
     id="metadata7">
    <rdf:RDF>
      <cc:Work
         rdf:about="">
        <dc:format>image/svg+xml</dc:format>
        <dc:type
           rdf:resource="http://purl.org/dc/dcmitype/StillImage" />
        <dc:title />
      </cc:Work>
    </rdf:RDF>
  </metadata>
  <g
     inkscape:label="Layer 1"
     inkscape:groupmode="layer"
     id="layer1"
     transform="translate(0,-540.36219)">
    <rect
       style="opacity:1;fill:#ff0000;fill-opacity:1;stroke:none"
       id="rect3336"
       width="82.142998"
       height="150"
       x="211.42857"
       y="631.64795" />
    <rect
       style="opacity:1;fill:#ffcc00;fill-opacity:1;stroke:none"
       id="rect3336-3"
       width="82.142998"
       height="150"
       x="44.642792"
       y="632.36218" />
    <rect
       style="opacity:1;fill:#00ff00;fill-opacity:1;stroke:none"
       id="rect3336-3-6"
       width="82.142998"
       height="150"
       x="387.49994"
       y="631.64795" />
    <rect
       style="opacity:1;fill:#0066ff;fill-opacity:1;stroke:none"
       id="rect3336-3-7"
       width="82.142998"
       height="150"
       x="212.49992"
       y="872.36218" />
    <path
       style="opacity:1;fill:#000000;fill-opacity:1;stroke:none"
       id="path4214"
       d="m 142.15595,708.40658 c 4.33306,-0.29377 8.68042,-0.33305 13.02167,-0.41223 4.64517,-0.0669 9.2907,-0.0925 13.93625,-0.11131 4.50725,0.0298 9.01453,0.0179 13.52182,0.0117 2.44259,-0.16257 4.95614,0.2842 7.37231,-0.23666 0.52711,-0.11363 1.03184,-0.3136 1.54776,-0.4704 0,0 -8.27762,6.33632 -8.27762,6.33632 l 0,0 c -2.99907,0.62877 -5.95319,0.47258 -9.0039,0.44531 -4.51444,-0.009 -9.02887,-0.0259 -13.54327,0.005 -4.61109,-0.0106 -9.22262,-0.0171 -13.83325,0.0589 -4.41405,0.0837 -8.84319,0.14185 -13.23002,0.68473 0,0 8.48825,-6.31176 8.48825,-6.31176 z"
       inkscape:connector-curvature="0" />
    <path
       style="opacity:1;fill:#000000;fill-opacity:1;stroke:none"
       id="path4216"
       d="m 177.95965,694.08214 c 4.28615,3.41269 8.83709,6.41505 13.49103,9.29292 0.79801,0.44709 1.59767,0.89124 2.39403,1.34128 1.83611,1.03762 2.39638,1.43237 4.28264,2.28744 1.6915,0.76677 3.45357,1.37246 5.15345,2.12312 3.31088,1.90831 2.15041,3.71045 -0.21214,5.75207 -3.51762,2.04615 -6.97896,4.19228 -10.55285,6.13846 -0.79658,0.43378 -3.61332,1.20748 -4.44108,1.44286 -2.47152,0.7028 -4.89908,1.49348 -7.34435,2.28259 -2.86706,1.1062 -1.4424,0.57986 -4.27293,1.5818 0,0 8.13956,-6.35016 8.13956,-6.35016 l 0,0 c 2.80114,-1.00331 1.38243,-0.49399 4.25608,-1.52811 0.62363,-0.19961 4.2893,-1.37485 4.84963,-1.546 1.41654,-0.43268 3.36942,-0.94369 4.77183,-1.47969 0.7178,-0.27435 2.75491,-1.34615 2.11056,-0.92743 -2.34331,1.52277 -4.81727,2.83437 -7.2259,4.25155 1.30126,-0.84895 1.05177,-0.58224 2.05542,-1.59133 1.19509,-1.20159 0.35909,-1.54306 -0.83147,-2.25428 -1.67607,-0.77359 -3.40781,-1.43096 -5.06687,-2.24027 -1.75374,-0.8555 -2.54942,-1.36995 -4.24901,-2.36935 -0.79174,-0.46557 -1.58353,-0.93103 -2.3753,-1.39654 -0.44781,-0.28037 -4.80167,-3.0029 -5.19295,-3.26201 -2.86665,-1.89834 -5.53374,-4.10961 -8.57734,-5.73386 0,0 8.83796,-5.81506 8.83796,-5.81506 z"
       inkscape:connector-curvature="0" />
    <path
       style="opacity:1;fill:#000000;fill-opacity:1;stroke:none"
       id="path4218"
       d="m 319.73052,702.84681 c 7.00543,0.1742 14.01437,0.16515 21.02147,0.13908 5.43443,-0.0297 10.86879,-0.0675 16.30322,-0.0946 3.05826,0.2796 5.88479,-0.81742 8.76351,-1.64463 0,0 -8.25853,6.35897 -8.25853,6.35897 l 0,0 c -2.91183,0.82853 -5.8091,1.64345 -8.87972,1.37026 -5.34766,-0.027 -10.69524,-0.0649 -16.04288,-0.0946 -7.13477,-0.0268 -14.27114,-0.0305 -21.40434,0.13908 0,0 8.49727,-6.17362 8.49727,-6.17362 z"
       inkscape:connector-curvature="0" />
    <path
       style="opacity:1;fill:#000000;fill-opacity:1;stroke:none"
       id="path4220"
       d="m 359.49907,690.35597 c 2.15126,1.09163 4.51875,1.59221 6.80698,2.29367 1.33493,0.40922 2.64956,0.882 3.97506,1.32082 1.84461,0.77956 4.8306,1.40661 5.4582,3.67561 0.0842,0.30439 0.0495,0.62969 0.0742,0.94454 -0.37524,1.57214 -1.59889,2.51414 -2.93547,3.30095 -9.91298,5.83544 -6.7449,4.31743 -11.79253,6.63976 -0.63723,0.28922 -1.27459,0.57818 -1.91171,0.86766 -0.67595,0.3071 -1.35878,0.59952 -2.02749,0.92208 -0.67438,0.32529 -2.64406,1.40405 -2.00076,1.02096 13.3942,-7.97609 6.11548,-3.51497 3.22827,-1.65656 -0.54609,0.38438 -1.09218,0.76876 -1.63827,1.15314 0,0 -9.6332,3.80885 -9.6332,3.80885 l 0,0 c 0.54391,-0.39979 1.08781,-0.79959 1.63172,-1.19938 6.50762,-4.33384 13.33395,-8.22331 20.47968,-11.40447 3.87835,-1.99142 3.95854,-2.06891 -6.09691,3.66907 -0.37317,0.21294 0.71006,-0.48439 1.07477,-0.7115 0.72161,-0.44936 1.03846,-0.51736 1.66076,-1.09176 0.18715,-0.17274 0.32823,-0.38951 0.49235,-0.58427 0.0613,-0.16653 0.18956,-0.32223 0.18386,-0.49959 -0.05,-1.55585 -3.77812,-2.57776 -4.82152,-3.03971 -3.62222,-1.22894 -7.32578,-2.17936 -10.92587,-3.47622 0,0 8.71789,-5.95365 8.71789,-5.95365 z"
       inkscape:connector-curvature="0" />
    <path
       style="opacity:1;fill:#000000;fill-opacity:1;stroke:none"
       id="path4222"
       d="m 256.1548,794.12357 c -0.0987,2.92417 -0.0755,5.85068 -0.0855,8.77604 0.004,3.24348 0.009,6.48701 0.006,9.73049 -6e-4,3.13426 0.01,6.26851 0.004,9.40275 0.0239,3.04001 0.109,6.05763 -0.35481,9.06822 -0.57044,2.22444 -0.59308,4.47666 -0.52263,6.75209 0.0735,1.78518 0.17077,3.56875 0.0993,5.35476 0,0 -9.4109,4.72055 -9.4109,4.72055 l 0,0 c 0.15457,-1.75323 0.007,-3.50834 -0.0468,-5.26522 -0.0931,-2.34284 -0.1729,-4.68466 0.47565,-6.9687 0.14434,-0.76685 0.40137,-2.01294 0.4543,-2.78757 0.13908,-2.03557 -0.0998,-4.09708 0.004,-6.1348 -0.006,-3.13567 0.005,-6.27135 0.004,-9.40704 -0.004,-3.24546 0.002,-6.49097 0.006,-9.73643 -0.01,-2.8963 0.0141,-5.79381 -0.0855,-8.68887 0,0 9.45246,-4.81627 9.45246,-4.81627 z"
       inkscape:connector-curvature="0" />
    <path
       style="opacity:1;fill:#000000;fill-opacity:1;stroke:none"
       id="path4224"
       d="m 237.14661,827.6418 c 2.05339,3.51257 4.61976,6.71127 7.08196,9.9453 2.54453,3.11183 5.28205,6.0523 7.88206,9.12098 1.84837,1.77346 2.43405,4.65175 4.64283,6.07782 0.32606,0.21051 0.70313,0.32883 1.05469,0.49325 0.34079,0.0532 0.67874,0.18929 1.02236,0.15953 0.85321,-0.0739 3.082,-1.49242 2.3296,-1.08338 -2.55583,1.38945 -5.01533,2.96471 -7.64262,4.2138 -0.53604,0.25486 0.90362,-0.77317 1.3119,-1.20398 0.40889,-0.43147 0.75578,-0.91773 1.13368,-1.37659 2.25841,-3.61103 4.86566,-6.96242 7.42065,-10.36168 1.9874,-2.71315 0.93191,-1.35685 3.17735,-4.06042 0,0 9.43211,-3.99894 9.43211,-3.99894 l 0,0 c -2.25263,2.6105 -1.2015,1.28163 -3.16435,3.97792 -2.46211,3.43104 -5.22691,6.64737 -7.31541,10.34086 -3.46143,4.8199 -5.72393,5.09249 -12.52978,8.97244 -1.30152,0.74199 -2.62531,0.73485 -3.95982,0.15761 -1.09251,-0.66836 -1.39077,-0.74306 -2.27182,-1.75207 -1.38618,-1.58752 -2.06626,-3.68124 -3.54474,-5.20169 -2.6027,-3.08213 -5.30949,-6.06929 -7.84253,-9.2069 -2.49775,-3.28444 -5.04484,-6.5417 -7.37122,-9.94943 0,0 9.1531,-5.26443 9.1531,-5.26443 z"
       inkscape:connector-curvature="0" />
    <path
       style="opacity:1;fill:#000000;fill-opacity:1;stroke:none"
       id="path4226"
       d="m 104.87715,826.07937 c 2.75983,4.57105 6.1495,8.73915 9.57416,12.82558 5.68756,7.19391 11.71575,14.10627 17.74159,21.01608 5.47899,6.14632 10.30917,12.83527 15.41156,19.2936 3.36962,4.2534 6.90014,8.37244 10.24222,12.64691 0.47508,0.59133 0.98286,1.15782 1.42525,1.77399 0.47466,0.66111 2.39469,3.7448 2.82568,4.4168 1.45457,2.26798 2.92335,4.52559 4.42888,6.75999 3.15519,4.08554 5.96478,8.4291 9.25952,12.40569 3.04724,3.19577 5.79162,6.66126 8.79127,9.89823 3.06124,3.2588 6.21869,6.39047 9.63696,9.27236 3.48419,2.73199 6.90375,5.54201 10.20427,8.4935 2.01536,1.76286 1.01261,0.85274 3.00588,2.73299 0,0 -8.8063,5.43806 -8.8063,5.43806 l 0,0 c -1.99458,-1.84341 -0.99096,-0.94121 -3.00994,-2.7076 -3.27239,-2.95916 -6.65355,-5.78796 -10.13715,-8.49635 -0.88818,-0.74868 -2.64008,-2.20367 -3.48774,-3.00462 -2.15776,-2.03885 -4.09396,-4.31349 -6.2476,-6.35796 -3.00227,-3.25719 -5.73205,-6.75581 -8.76903,-9.9834 -3.2714,-4.03634 -6.11928,-8.38184 -9.26358,-12.51541 -2.8866,-4.29351 -5.5204,-8.77435 -8.70414,-12.85396 -3.31911,-4.2812 -6.77428,-8.45038 -10.07798,-12.74463 -4.99533,-6.50739 -9.70413,-13.25722 -15.19146,-19.3658 -5.97242,-6.96733 -12.12141,-13.78428 -17.84806,-20.95943 -3.58342,-4.12453 -7.091811,-8.33301 -10.245918,-12.79423 0,0 9.241658,-5.19039 9.241658,-5.19039 z"
       inkscape:connector-curvature="0" />
    <path
       style="opacity:1;fill:#000000;fill-opacity:1;stroke:none"
       id="path4228"
       d="m 92.468856,856.24755 c 0.450327,-3.03417 0.682022,-6.11395 0.519796,-9.17787 -0.143114,-3.81516 -1.351558,-7.38992 -2.454148,-11.00114 -0.890434,-2.9157 -2.422433,-5.52687 -3.820028,-8.2095 -0.413031,-1.01864 -1.189593,-3.112 0.17346,-3.86493 3.316769,-1.83214 6.699031,-3.54312 10.048547,-5.31468 4.225637,0.37033 8.149867,2.03668 12.187607,3.19698 2.59418,0.93221 5.32231,1.34063 7.99609,1.95032 2.67221,0.60934 5.29559,1.43032 7.92652,2.19249 0,0 -8.48369,5.79698 -8.48369,5.79698 l 0,0 c -1.66624,-0.50779 -3.34146,-1.03501 -5.02687,-1.47567 -3.61975,-0.94641 -7.33449,-1.50609 -10.90318,-2.65431 -3.933371,-1.15386 -7.908334,-2.93631 -12.086642,-2.61065 2.745804,-1.62999 5.526773,-3.20216 8.237413,-4.88999 0.325081,-0.20242 -0.827985,0.0744 -1.094379,0.34956 -0.521618,0.53868 9.76e-4,1.59739 0.148164,2.12441 1.356737,2.77355 2.923024,5.44541 3.80117,8.43097 1.085074,3.68612 2.419294,7.30979 2.584464,11.19387 0.2588,3.09431 -0.0374,6.18809 -0.23541,9.28198 0,0 -9.518884,4.68118 -9.518884,4.68118 z"
       inkscape:connector-curvature="0" />
    <path
       style="opacity:1;fill:#000000;fill-opacity:1;stroke:none"
       id="path4230"
       d="m 420.83713,624.3593 c -2.3797,-4.51146 -5.09404,-8.80947 -8.08847,-12.93428 -1.95637,-2.69954 -3.60372,-5.67034 -5.7997,-8.19549 -0.89234,-1.02611 -2.06491,-1.97625 -3.08869,-2.8611 -1.69299,-1.34426 -3.26104,-2.84323 -5.16192,-3.90613 -2.31737,-1.29578 -4.89172,-2.05316 -7.39286,-2.89486 -5.10729,-1.92964 -10.34646,-3.45394 -15.54598,-5.10672 -7.42332,-2.42359 -14.95434,-4.5238 -22.59794,-6.12968 -7.75496,-1.65351 -15.38283,-3.80495 -23.06148,-5.76291 -8.00894,-1.67105 -16.13655,-2.75309 -24.28399,-3.46895 -6.98433,-1.03598 -13.97979,-1.92064 -21.025,-2.40141 -5.75883,-0.33589 -11.53005,-0.33976 -17.2966,-0.36579 -7.23145,-0.0144 -14.46284,-0.0381 -21.69431,-0.0341 -8.16918,-0.003 -16.33837,-0.004 -24.50755,0.004 -7.51892,0.0108 -15.03784,0.0174 -22.55677,0.021 -7.07867,0.01 -14.15739,-0.0122 -21.23601,0.0161 -7.12277,0.19338 -13.99129,2.25692 -20.86114,3.95126 -5.31133,1.64014 -10.79172,2.61151 -16.14463,4.09149 -4.96659,1.45269 -2.49043,0.75686 -7.42798,2.0893 -5.57967,1.25739 -10.98807,3.27719 -16.10007,5.83219 1.28293,-0.83463 -5.08228,2.64548 -3.84964,1.91442 2.30215,-1.36538 9.28106,-5.33718 6.97258,-3.98253 -3.54064,2.0777 -7.12832,4.07454 -10.66923,6.15178 -2.34979,1.37848 4.69988,-2.75863 7.09573,-4.05542 0.62527,-0.33843 -1.18569,0.78493 -1.77853,1.1774 -3.70624,2.58056 -7.4705,5.06827 -11.05631,7.81682 -3.51923,2.77798 -6.764678,5.87598 -9.975405,8.99865 -1.463312,1.37799 -2.823749,2.85768 -4.187093,4.33262 0,0 -9.561944,4.00792 -9.561944,4.00792 l 0,0 c 1.365751,-1.49414 2.712159,-3.01003 4.190923,-4.39552 3.221745,-3.14999 6.472812,-6.27902 9.973868,-9.12142 3.53728,-2.80285 7.292161,-5.28629 10.992401,-7.86245 5.22687,-3.66425 0.36978,-0.33168 12.34682,-7.40398 2.3258,-1.37336 -9.35813,5.39925 -7.012,4.06091 4.8427,-2.76252 9.49435,-5.76849 14.56738,-8.06055 5.1279,-2.39623 10.47734,-4.32459 16.01675,-5.5271 2.47349,-0.67297 4.93325,-1.39607 7.40969,-2.05808 5.37044,-1.43565 10.84842,-2.4506 16.16485,-4.09672 6.93231,-1.72547 13.88693,-3.75991 21.08826,-3.81522 7.06376,0.0286 14.12762,0.007 21.19142,0.0163 7.49981,0.004 14.99962,0.0106 22.49943,0.0205 8.17125,0.007 16.34253,0.004 24.51378,-0.01 7.27734,-0.007 14.55448,-0.0539 21.83181,-0.0613 5.78561,0.006 11.57649,0.0239 17.35153,0.41798 6.9967,0.58719 13.93883,1.56313 20.89292,2.51526 8.17502,0.78451 16.3378,1.89412 24.37319,3.6025 7.65033,1.98759 15.28308,4.03551 23.00005,5.75809 7.68694,1.71023 15.31712,3.70188 22.82451,6.08242 5.23382,1.59531 10.47678,3.15139 15.59325,5.10355 2.59206,0.87607 5.19906,1.72176 7.5946,3.07505 1.94273,1.09749 3.56989,2.59086 5.27787,4.00347 1.19671,1.06466 2.13539,1.82588 3.17834,3.05768 2.16547,2.55756 3.77302,5.5492 5.70222,8.27441 3.0179,4.20541 5.71992,8.60347 8.55873,12.92757 0,0 -9.24166,5.1904 -9.24166,5.1904 z"
       inkscape:connector-curvature="0" />
    <path
       style="opacity:1;fill:#000000;fill-opacity:1;stroke:none"
       id="path4236"
       d="m 71.345505,588.05107 c 1.030018,2.56546 2.563118,4.89064 3.601481,7.45217 0.303621,0.74899 0.547371,1.52089 0.821057,2.28133 1.07006,4.19015 2.789519,8.14664 4.537007,12.08513 1.382789,2.92522 3.16824,5.77251 5.747701,7.77314 0.412643,0.16536 0.804221,0.39853 1.237929,0.49608 2.642695,0.59438 6.963248,-1.81053 9.269928,-2.84949 4.600782,-1.95889 9.257472,-3.78305 13.881932,-5.68806 3.07526,-0.80674 5.68064,-2.61931 8.55473,-3.88255 0,0 -8.1786,6.5011 -8.1786,6.5011 l 0,0 c -2.80689,1.36334 -5.51394,2.919 -8.53309,3.7999 -4.599509,1.81757 -9.191815,3.65817 -13.732244,5.61758 -2.935122,1.29993 -6.656319,3.49114 -9.98382,2.27631 -0.486695,-0.17769 -0.919056,-0.47866 -1.378584,-0.71799 -2.59384,-2.22418 -4.510549,-5.14445 -5.937947,-8.23474 -1.704849,-3.98195 -3.417329,-7.9688 -4.487436,-12.18192 -1.231713,-3.26908 -2.886967,-6.31041 -4.570384,-9.36617 0,0 9.15034,-5.36182 9.15034,-5.36182 z"
       inkscape:connector-curvature="0" />
    <text
       xml:space="preserve"
       style="font-style:normal;font-weight:normal;font-size:25px;line-height:125%;font-family:sans-serif;letter-spacing:0px;word-spacing:0px;fill:#ffffff;fill-opacity:1;stroke:none;stroke-width:1px;stroke-linecap:butt;stroke-linejoin:miter;stroke-opacity:1;"
       x="52.142857"
       y="702.36218"
       id="text4257"
       sodipodi:linespacing="125%"><tspan
         sodipodi:role="line"
         id="tspan4259"
         x="52.142857"
         y="702.36218">ready</tspan></text>
    <text
       xml:space="preserve"
       style="font-style:normal;font-weight:normal;font-size:40px;line-height:125%;font-family:sans-serif;letter-spacing:0px;word-spacing:0px;fill:#ffffff;fill-opacity:1;stroke:none;stroke-width:1px;stroke-linecap:butt;stroke-linejoin:miter;stroke-opacity:1;"
       x="225.71429"
       y="709.50507"
       id="text4261"
       sodipodi:linespacing="125%"><tspan
         sodipodi:role="line"
         id="tspan4263"
         x="225.71429"
         y="709.50507">set</tspan></text>
    <text
       xml:space="preserve"
       style="font-style:normal;font-weight:normal;font-size:40px;line-height:125%;font-family:sans-serif;letter-spacing:0px;word-spacing:0px;fill:#ffffff;fill-opacity:1;stroke:none;stroke-width:1px;stroke-linecap:butt;stroke-linejoin:miter;stroke-opacity:1;"
       x="395"
       y="702.36218"
       id="text4265"
       sodipodi:linespacing="125%"><tspan
         sodipodi:role="line"
         id="tspan4267"
         x="395"
         y="702.36218">go</tspan></text>
    <text
       xml:space="preserve"
       style="font-style:normal;font-weight:normal;font-size:40px;line-height:125%;font-family:sans-serif;letter-spacing:0px;word-spacing:0px;fill:#ffffff;fill-opacity:1;stroke:none;stroke-width:1px;stroke-linecap:butt;stroke-linejoin:miter;stroke-opacity:1;"
       x="222.85715"
       y="953.07648"
       id="text4269"
       sodipodi:linespacing="125%"><tspan
         sodipodi:role="line"
         id="tspan4271"
         x="222.85715"
         y="953.07648">:|</tspan></text>
  </g>
</svg>
